<svg width="34" height="43" viewBox="0 0 34 43" fill="none" xmlns="http://www.w3.org/2000/svg">
<path d="M17 21.25C18.1688 21.25 19.1693 20.8339 20.0016 20.0016C20.8339 19.1693 21.25 18.1688 21.25 17C21.25 15.8312 20.8339 14.8307 20.0016 13.9984C19.1693 13.1661 18.1688 12.75 17 12.75C15.8312 12.75 14.8307 13.1661 13.9984 13.9984C13.1661 14.8307 12.75 15.8312 12.75 17C12.75 18.1688 13.1661 19.1693 13.9984 20.0016C14.8307 20.8339 15.8312 21.25 17 21.25ZM17 42.5C11.2979 37.6479 7.03906 33.1411 4.22344 28.9797C1.40781 24.8182 0 20.9667 0 17.425C0 12.1125 1.70885 7.88021 5.12656 4.72813C8.54427 1.57604 12.5021 0 17 0C21.4979 0 25.4557 1.57604 28.8734 4.72813C32.2911 7.88021 34 12.1125 34 17.425C34 20.9667 32.5922 24.8182 29.7766 28.9797C26.9609 33.1411 22.7021 37.6479 17 42.5Z" fill="#A83A24"/>
</svg>
