<svg width="30" height="30" viewBox="0 0 30 30" fill="none" xmlns="http://www.w3.org/2000/svg">
<path d="M15.0948 0.726342C15.0448 0.388842 14.7886 0.113842 14.4511 0.063842C13.0698 -0.129908 11.6636 0.120092 10.4261 0.776342L5.80108 3.24509C4.56983 3.90134 3.57608 4.93259 2.96358 6.18884L0.669825 10.9138C0.0573251 12.1701 -0.142675 13.5951 0.101075 14.9701L1.00733 20.1451C1.25108 21.5263 1.91983 22.7888 2.92608 23.7638L6.69483 27.4138C7.70108 28.3888 8.98233 29.0138 10.3636 29.2076L15.5511 29.9388C16.9323 30.1326 18.3386 29.8826 19.5761 29.2263L24.2011 26.7576C25.4323 26.1013 26.4261 25.0701 27.0386 23.8076L29.3323 19.0888C29.9448 17.8326 30.1448 16.4076 29.9011 15.0326C29.8448 14.7013 29.5698 14.4513 29.2386 14.4013C26.0198 13.8888 23.4386 11.4576 22.7073 8.31384C22.5948 7.83884 22.2073 7.47634 21.7261 7.40134C18.3136 6.85759 15.6198 4.15134 15.0886 0.726342H15.0948ZM12.0011 8.00134C13.1073 8.00134 14.0011 8.89509 14.0011 10.0013C14.0011 11.1076 13.1073 12.0013 12.0011 12.0013C10.8948 12.0013 10.0011 11.1076 10.0011 10.0013C10.0011 8.89509 10.8948 8.00134 12.0011 8.00134ZM8.00108 20.0013C8.00108 18.8951 8.89483 18.0013 10.0011 18.0013C11.1073 18.0013 12.0011 18.8951 12.0011 20.0013C12.0011 21.1076 11.1073 22.0013 10.0011 22.0013C8.89483 22.0013 8.00108 21.1076 8.00108 20.0013ZM22.0011 16.0013C23.1073 16.0013 24.0011 16.8951 24.0011 18.0013C24.0011 19.1076 23.1073 20.0013 22.0011 20.0013C20.8948 20.0013 20.0011 19.1076 20.0011 18.0013C20.0011 16.8951 20.8948 16.0013 22.0011 16.0013Z" fill="#1B6583"/>
</svg>
