<svg width="14" height="13" viewBox="0 0 14 13" fill="none" xmlns="http://www.w3.org/2000/svg">
<path d="M12 4.67743C12.3536 4.67743 12.6928 4.81791 12.9428 5.06796C13.1929 5.31801 13.3333 5.65715 13.3333 6.01077V6.3441C13.3333 7.47343 11.8353 10.0041 10.678 10.9994L10.6667 11.0081V11.3441C10.6668 11.6805 10.5397 12.0045 10.311 12.2511C10.0823 12.4978 9.76877 12.6489 9.43333 12.6741L9.33333 12.6774H4C3.64638 12.6774 3.30724 12.537 3.05719 12.2869C2.80714 12.0369 2.66667 11.6977 2.66667 11.3441V11.0134L2.62333 10.9781C1.45 9.98077 0.094 7.6681 0.00466665 6.46477L0 6.3441V6.01077C0 5.65715 0.140476 5.31801 0.390524 5.06796C0.640573 4.81791 0.979711 4.67743 1.33333 4.67743H12ZM6.278 0.136101C6.34891 0.0821505 6.42992 0.0429619 6.51623 0.0208516C6.60255 -0.00125867 6.69242 -0.00584198 6.78054 0.00737257C6.86865 0.0205871 6.95323 0.0513314 7.02926 0.0977884C7.10529 0.144245 7.17124 0.205472 7.22321 0.277851C7.27517 0.350229 7.3121 0.432291 7.33181 0.519185C7.35152 0.606079 7.35362 0.696043 7.33797 0.78376C7.32232 0.871477 7.28924 0.955166 7.2407 1.02988C7.19215 1.1046 7.12912 1.16883 7.05533 1.21877C6.80533 1.39877 6.66 1.68943 6.66667 2.02477C6.66343 2.17626 6.69713 2.32625 6.76484 2.4618C6.83256 2.59735 6.93226 2.71438 7.05533 2.80277C7.12912 2.85271 7.19215 2.91694 7.2407 2.99165C7.28924 3.06637 7.32232 3.15006 7.33797 3.23778C7.35362 3.32549 7.35152 3.41546 7.33181 3.50235C7.3121 3.58925 7.27517 3.67131 7.22321 3.74369C7.17124 3.81606 7.10529 3.87729 7.02926 3.92375C6.95323 3.9702 6.86865 4.00095 6.78054 4.01416C6.69242 4.02738 6.60255 4.02279 6.51623 4.00068C6.42992 3.97857 6.34891 3.93939 6.278 3.88543C5.98219 3.67444 5.74179 3.39503 5.5773 3.07104C5.41281 2.74706 5.32911 2.3881 5.33333 2.02477C5.32569 1.65693 5.4077 1.29276 5.57229 0.963703C5.73687 0.634649 5.97908 0.350605 6.278 0.136101ZM8.94467 0.136101C9.01558 0.0821505 9.09658 0.0429619 9.1829 0.0208516C9.26921 -0.00125867 9.35909 -0.00584198 9.4472 0.00737257C9.53532 0.0205871 9.61989 0.0513314 9.69592 0.0977884C9.77196 0.144245 9.8379 0.205472 9.88987 0.277851C9.94184 0.350229 9.97877 0.432291 9.99848 0.519185C10.0182 0.606079 10.0203 0.696043 10.0046 0.78376C9.98898 0.871477 9.95591 0.955166 9.90736 1.02988C9.85882 1.1046 9.79579 1.16883 9.722 1.21877C9.472 1.39877 9.32667 1.68943 9.33333 2.02477C9.3301 2.17626 9.3638 2.32625 9.43151 2.4618C9.49923 2.59735 9.59893 2.71438 9.722 2.80277C9.79579 2.85271 9.85882 2.91694 9.90736 2.99165C9.95591 3.06637 9.98898 3.15006 10.0046 3.23778C10.0203 3.32549 10.0182 3.41546 9.99848 3.50235C9.97877 3.58925 9.94184 3.67131 9.88987 3.74369C9.8379 3.81606 9.77196 3.87729 9.69592 3.92375C9.61989 3.9702 9.53532 4.00095 9.4472 4.01416C9.35909 4.02738 9.26921 4.02279 9.1829 4.00068C9.09658 3.97857 9.01558 3.93939 8.94467 3.88543C8.64886 3.67444 8.40846 3.39503 8.24397 3.07104C8.07948 2.74706 7.99578 2.3881 8 2.02477C7.99236 1.65693 8.07437 1.29276 8.23895 0.963703C8.40354 0.634649 8.64575 0.350605 8.94467 0.136101ZM3.61133 0.136101C3.68224 0.0821505 3.76325 0.0429619 3.84957 0.0208516C3.93588 -0.00125867 4.02575 -0.00584198 4.11387 0.00737257C4.20199 0.0205871 4.28656 0.0513314 4.36259 0.0977884C4.43862 0.144245 4.50457 0.205472 4.55654 0.277851C4.6085 0.350229 4.64543 0.432291 4.66515 0.519185C4.68486 0.606079 4.68695 0.696043 4.6713 0.78376C4.65565 0.871477 4.62258 0.955166 4.57403 1.02988C4.52549 1.1046 4.46246 1.16883 4.38867 1.21877C4.13867 1.39877 3.99333 1.68943 4 2.02477C3.99677 2.17626 4.03046 2.32625 4.09818 2.4618C4.1659 2.59735 4.2656 2.71438 4.38867 2.80277C4.46246 2.85271 4.52549 2.91694 4.57403 2.99165C4.62258 3.06637 4.65565 3.15006 4.6713 3.23778C4.68695 3.32549 4.68486 3.41546 4.66515 3.50235C4.64543 3.58925 4.6085 3.67131 4.55654 3.74369C4.50457 3.81606 4.43862 3.87729 4.36259 3.92375C4.28656 3.9702 4.20199 4.00095 4.11387 4.01416C4.02575 4.02738 3.93588 4.02279 3.84957 4.00068C3.76325 3.97857 3.68224 3.93939 3.61133 3.88543C3.31552 3.67444 3.07512 3.39503 2.91063 3.07104C2.74614 2.74706 2.66244 2.3881 2.66667 2.02477C2.65902 1.65693 2.74103 1.29276 2.90562 0.963703C3.0702 0.634649 3.31241 0.350605 3.61133 0.136101Z" fill="#1B6583"/>
</svg>
