<svg width="38" height="38" viewBox="0 0 38 38" fill="none" xmlns="http://www.w3.org/2000/svg">
<path d="M21.1143 1C22.5257 1.00194 23.8883 1.47756 24.9688 2.33789C26.0483 3.19769 26.778 4.38661 27.042 5.69727L27.1855 6.41309L27.9111 6.49414C30.4222 6.77345 32.7324 7.93191 34.4053 9.74023C35.9727 11.4346 36.8798 13.5883 36.9893 15.8359L37 16.2871C36.9997 22.6921 34.7561 27.6722 30.3848 31.207C25.1249 35.4618 17.4152 36.9999 10.3428 37H10.3408C7.71362 37.0038 5.09059 36.7891 2.50195 36.3574L2.50098 36.3564C2.08848 36.288 1.71808 36.0884 1.44824 35.7969C1.17906 35.506 1.02521 35.1411 1.00293 34.7637C0.980684 34.3863 1.09072 34.0084 1.32227 33.6924C1.5543 33.3758 1.89644 33.1381 2.29688 33.0254L2.30078 33.0244C6.89331 31.7159 10.4531 29.6701 12.8662 26.8428C15.2907 24.002 16.487 20.4544 16.4873 16.2871C16.49 13.9279 17.3718 11.6424 18.9814 9.84961C20.5919 8.0559 22.8243 6.87509 25.2734 6.53125L26.4619 6.36426L26.083 5.22461C25.7406 4.19644 25.071 3.30598 24.1777 2.67773C23.2848 2.04982 22.2123 1.71387 21.1152 1.71387C20.9959 1.71387 20.8882 1.66786 20.8145 1.59668C20.7421 1.5268 20.7081 1.44009 20.708 1.35742C20.708 1.2746 20.7419 1.18718 20.8145 1.11719C20.8881 1.04621 20.9953 1.00025 21.1143 1ZM26.3076 14.1865L21.3135 16.6016C21.2547 16.6299 21.1881 16.6454 21.1191 16.6455C21.05 16.6455 20.9827 16.63 20.9238 16.6016L18.7354 15.5459L17.3125 14.8594L17.3008 16.4395C17.2697 20.764 15.9838 24.3702 13.5498 27.2363C11.1068 30.113 7.44566 32.316 2.5498 33.708L2.66113 35.6562C7.16777 36.395 11.7642 36.4774 16.2959 35.8994L16.3008 35.8984C21.7926 35.1678 26.4858 33.3893 29.834 30.6855H29.835C34.0328 27.2888 36.146 22.455 36.1846 16.4512L36.1943 14.8486L34.75 15.5439L32.5674 16.5957L32.5664 16.5967C32.5077 16.625 32.441 16.6406 32.3721 16.6406C32.303 16.6406 32.2357 16.6251 32.1768 16.5967L27.1777 14.1855L26.7432 13.9756L26.3076 14.1865ZM26.7422 7.14258C24.7874 7.14473 22.8786 7.73385 21.2803 8.83203C19.6815 9.93056 18.4702 11.4859 17.8223 13.2871L17.5176 14.1357L18.3291 14.5264L20.6807 15.6602L21.1152 15.8691L21.5488 15.6602L26.5469 13.2559H26.5488C26.6076 13.2275 26.6742 13.212 26.7432 13.2119C26.8123 13.2119 26.8795 13.2274 26.9385 13.2559H26.9395L31.9385 15.6602L32.3701 15.8682L32.8027 15.6611L35.1543 14.5361L35.9688 14.1465L35.665 13.2969C35.019 11.4937 33.809 9.93536 32.21 8.83496C30.6114 7.73494 28.7012 7.14516 26.7451 7.14258H26.7422Z" stroke="#1B6583" stroke-width="2"/>
</svg>
