<svg width="40" height="40" viewBox="0 0 40 40" fill="none" xmlns="http://www.w3.org/2000/svg">
<g clip-path="url(#clip0_301_1142)">
<path d="M17.8932 0C17.1466 0 16.3999 0 15.6266 0.08C12.4799 0.426667 9.09323 1.38667 6.58657 4C3.86657 6.8 4.2399 10.6667 4.90657 13.6533C5.22657 15.1467 5.57323 16.4533 5.8399 17.5733C6.10657 18.6667 6.13323 19.52 6.10657 19.6C5.86657 20.4267 4.37323 22.5333 2.90657 24.72C1.46657 26.9067 -0.0534341 29.28 -0.000100752 32.0533C0.0532326 34.5867 1.49323 37.0133 3.94657 38.3733C6.42657 39.76 9.78657 40.2667 14.1066 39.8667C18.8532 39.44 25.2532 36.5867 30.6932 32.5333C36.1066 28.48 40.7199 23.0133 39.8932 16.9067L39.8132 16.5333C38.9332 11.1733 35.6799 7.36 32.2932 4.82667C28.7999 2.24 25.1999 0.986667 23.3332 0.56C22.0266 0.266667 20.0799 0 17.8932 0ZM18.0799 3.70667C19.9732 3.68 21.6266 3.86667 22.5866 4.08C23.7332 4.34667 27.0666 5.62667 30.0266 7.81333C32.9866 10 35.5466 13.12 36.1332 17.4667C36.6666 21.3333 33.3332 25.8667 28.4266 29.5467C23.4932 33.2267 17.1732 35.84 13.7332 36.16C9.89323 36.5067 7.33323 35.9733 5.8399 35.12C4.34657 34.2933 3.78657 33.4133 3.7599 32.0533C3.73323 30.9867 4.74657 28.8267 6.10657 26.7733C7.49323 24.72 9.0399 22.88 9.70657 20.72C10.1066 19.3333 9.81323 18.0267 9.5199 16.72C9.1999 15.44 8.85323 14.1333 8.5599 12.8267C7.97323 10.1867 7.81323 8.08 9.22657 6.58667C10.8532 4.90667 13.4932 4.08 16.1066 3.81333C16.7466 3.73333 17.4399 3.73333 18.0799 3.70667ZM19.6799 6.96C17.3599 6.90667 15.0666 7.33333 13.3599 9.30667C11.1199 11.92 13.9732 18.24 13.3599 20.2667C12.7732 22.2933 9.25323 25.7067 9.30657 28.3467C9.38657 30.9867 10.2399 32.8533 15.8132 32.3467C21.3866 31.84 33.1999 24.9067 32.2932 18.1333C31.9466 15.6267 30.8532 13.28 29.4666 11.8933C28.8266 11.28 27.4132 12.32 26.6399 13.4667L19.9466 23.3333C18.8266 24.9867 16.2932 23.4133 17.4132 21.76L24.1866 11.8133C25.2799 10.1867 25.1999 8.42667 24.2932 7.89333C23.4399 7.41333 22.5599 7.25333 21.9199 7.14667C21.1999 7.04 20.4532 6.98667 19.6799 6.96Z" fill="#1B6583"/>
</g>
<defs>
<clipPath id="clip0_301_1142">
<rect width="40" height="40" fill="white"/>
</clipPath>
</defs>
</svg>
