<svg width="35" height="35" viewBox="0 0 35 35" fill="none" xmlns="http://www.w3.org/2000/svg">
<path d="M23.15 10.9167C24.15 11.5 24.8167 12.5667 24.8167 13.7833V18.45L17.3167 10.9333L18.15 10.45L21.0667 12.1167L23.15 10.9167ZM18.15 7.95L21.0667 9.61667L23.6 8.16667C22.6833 6.55 21.3333 5.35 19.7667 4.86667C19.6255 3.6521 19.0435 2.53156 18.1311 1.7175C17.2188 0.90343 16.0394 0.45243 14.8167 0.45V3.78333C15.55 3.78333 16.15 4.26667 16.3833 4.93333C15.25 5.31667 14.25 6.06667 13.4333 7.06667L15.7167 9.35L18.15 7.95ZM2.13333 0L0 2.11667L11.4833 13.6167V15.45C11.4833 30.45 24.8167 33.7833 24.8167 33.7833V26.9333L32.8833 35L35 32.8833L2.13333 0Z" fill="#1B6583"/>
</svg>
