<svg width="40" height="40" viewBox="0 0 40 40" fill="none" xmlns="http://www.w3.org/2000/svg">
<path d="M6.75341 14.1025C3.12787 17.451 5.42996 23.3333 10.8594 23.3333C13.5776 23.3333 15.8736 21.6976 16.6112 19.4545M9.89579 17.1795C3.87193 14.8181 7.0771 7.26879 13.2535 7.9978C13.2535 5.44879 15.5084 3.33331 18.29 3.33331C21.0716 3.33331 23.3266 5.03645 23.3266 7.58546C24.2176 6.85463 25.3943 6.41024 26.6843 6.41024C29.4659 6.41024 31.7208 8.47661 31.7208 11.0256C31.7208 13.5746 29.4659 15.641 26.6843 15.641M31.4342 12.5641C37.2507 14.6807 35.558 23.3333 29.2026 23.3333C25.9574 23.3333 23.3266 20.8401 23.3266 17.7646C21.6477 20.2564 19.1295 21.0256 16.6112 19.4872" stroke="#1B6583" stroke-width="2" stroke-linecap="round" stroke-linejoin="round"/>
<path d="M11.6667 23.3333C13.1439 24.0691 15.6882 27.5609 15.8334 35C15.8549 36.0999 18.8076 36.6666 20.0001 36.6666C21.1926 36.6666 24.1453 36.0999 24.1667 35C24.312 27.5609 26.8562 24.0691 28.3334 23.3333" stroke="#1B6583" stroke-width="2" stroke-linecap="round"/>
</svg>
